# xmcd
#
# Track frame offsets:
# 150
# 17592
# 36136
# 51684
# 64836
# 80983
# 101707
# 117778
# 135344
# 152402
#
# Disc length: 2265 seconds
#
#
# Revision: 0
# Processed by: cddbd v1.5PL3 Copyright (c) Steve Scherf et al.
# Submitted via: FreeRIP 2.53 
#
DISCID=8208d70a
DTITLE=Overstreet, Paul - The Best Of
DYEAR=1900
DGENRE=
TTITLE0=Sowin' Love
TTITLE1=All The Fun
TTITLE2=See'N My Father In Me
TTITLE3=Richest Man On Earth
TTITLE4=Daddy's Come Around
TTITLE5=Heroes
TTITLE6=Ball and Chain
TTITLE7=If I could Bottle This Up
TTITLE8=Billy Can't Read
TTITLE9=Take Another Run
EXTD=
EXTT0=
EXTT1=
EXTT2=
EXTT3=
EXTT4=
EXTT5=
EXTT6=
EXTT7=
EXTT8=
EXTT9=
PLAYORDER=
